# AST/ASF file generated using VICON BodyLanguage
# -----------------------------------------------
:version 1.10
:name VICON
:units
  mass 1.0
  length 0.45
  angle deg
:documentation
   .ast/.asf automatically generated from VICON data using
   VICON BodyBuilder and BodyLanguage model FoxedUp or BRILLIANT.MOD
:root
   order TX TY TZ RX RY RZ
   axis XYZ
   position 0 0 0  
   orientation 0 0 0 
:bonedata
  begin
     id 1 
     name lhipjoint
     direction 0.584852 -0.759097 0.285867 
     length 2.43633 
     axis 0 0 0  XYZ
  end
  begin
     id 2 
     name lfemur
     direction 0.34202 -0.939693 0  
     length 7.14704  
     axis 0 0 20  XYZ
    dof rx ry rz
    limits (-160.0 20.0)
           (-70.0 70.0)
           (-60.0 70.0)
  end
  begin
     id 3 
     name ltibia
     direction 0.342022 -0.939692 0   
     length 7.68483   
     axis 0 0 20   XYZ
    dof rx
    limits (-10.0 170.0)
  end
  begin
     id 4 
     name lfoot
     direction 0.0999605 -0.274639 0.956337   
     length 2.40452   
     axis -90 7.62852e-016 20   XYZ
    dof rx rz
    limits (-45.0 90.0)
           (-70.0 20.0)
  end
  begin
     id 5 
     name ltoes
     direction 1.53468e-011 -4.21881e-011 1   
     length 1.19837   
     axis -90 7.62852e-016 20   XYZ
    dof rx
    limits (-90.0 20.0)
  end
  begin
     id 6 
     name rhipjoint
     direction -0.569886 -0.769002 0.289597   
     length 2.40495  
     axis 0 0 0  XYZ 
  end
  begin
     id 7 
     name rfemur
     direction -0.34202 -0.939693 0   
     length 7.45086   
     axis 0 0 -20   XYZ
    dof rx ry rz
    limits (-160.0 20.0)
           (-70.0 70.0)
           (-70.0 60.0)
  end
  begin
     id 8 
     name rtibia
     direction -0.34202 -0.939693 0   
     length 7.76831   
     axis 0 0 -20   XYZ
    dof rx
    limits (-10.0 170.0)
 end
 begin
     id 9 
     name rfoot
     direction -0.0798572 -0.219406 0.97236   
     length 2.35911  
     axis -90 -7.62852e-016 -20   XYZ
    dof rx rz
    limits (-45.0 90.0)
           (-20.0 70.0)
  end
  begin
     id 10 
     name rtoes
     direction -1.53469e-011 -4.21728e-011 1   
     length 1.18261   
     axis -90 -7.62852e-016 -20   XYZ
    dof rx
    limits (-90.0 20.0)
  end
  begin
     id 11 
     name lowerback
     direction 0.0242088 0.999437 0.0232389   
     length 2.1561   
     axis 0 0 0   XYZ
    dof rx ry rz
    limits (-20.0 45.0)
           (-30.0 30.0)
           (-30.0 30.0)
  end
  begin
     id 12 
     name upperback
     direction -0.0356893 0.999013 -0.0264323   
     length 2.14431   
     axis 0 0 0   XYZ
    dof rx ry rz
    limits (-20.0 45.0)
           (-30.0 30.0)
           (-30.0 30.0)
  end
  begin
     id 13 
     name thorax
     direction -0.0472163 0.998194 -0.0371284   
     length 2.16169   
     axis 0 0 0   XYZ
    dof rx ry rz
    limits (-20.0 45.0)
           (-30.0 30.0)
           (-30.0 30.0)
  end
  begin
     id 14 
     name lowerneck
     direction 0.00863244 0.999921 0.00911972   
     length 1.58651   
     axis 0 0 0   XYZ
    dof rx ry rz
    limits (-20.0 45.0)
           (-30.0 30.0)
           (-30.0 30.0)
  end
  begin
     id 15 
     name upperneck
     direction 0.149523 0.979068 -0.138086   
     length 1.57486   
     axis 0 0 0   XYZ
    dof rx ry rz
    limits (-20.0 45.0)
           (-30.0 30.0)
           (-30.0 30.0)
  end
  begin
     id 16
     name head
     direction 0.0445219 0.997708 -0.0509576  
     length 1.6019  
     axis 0 0 0   XYZ
    dof rx ry rz
    limits (-20.0 45.0)
           (-30.0 30.0)
           (-30.0 30.0)
  end
  begin
     id 17 
     name lclavicle
     direction 0.911271 0.381667 -0.154644  
     length 3.80848  
     axis 0 0 0   XYZ
    dof ry rz
    limits (-20.0 10.0)
           (0.0 20.0)
  end
  begin
     id 18 
     name lhumerus
     direction 1 -4.49003e-011 2.1308e-027   
     length 5.19069   
     axis 180 -30 -90   XYZ
    dof rx ry rz
    limits (-60.0 90.0)
           (-90.0 90.0)
           (-90.0 90.0)
  end
  begin
     id 19
     name lradius
     direction 1 -4.48914e-011 4.01554e-027   
     length 3.30016   
     axis 180 -30 -90   XYZ
    dof rx
    limits (-10.0 170.0)
  end
  begin
     id 20
     name lwrist
     direction 1 -4.49003e-011 1.1934e-026   
     length 1.65008   
     axis -8.46377e-015 90 90   XYZ
    dof ry
    limits (-180.0 0.0)
 end
  begin
     id 21 
     name lhand
     direction 1 -4.49034e-011 2.38659e-026   
     length 0.707698   
     axis -1.52313e-014 90 90   XYZ
    dof rx rz
    limits (-90.0 90.0)
           (-45.0 45.0)
  end
  begin
     id 22 
     name lfingers
     direction 1 -4.48691e-011 4.77775e-026   
     length 0.570564   
     axis -3.04623e-014 90 90   XYZ
    dof rx
    limits (0.0 90.0)
  end
  begin
     id 23
     name lthumb
     direction 0.707107 -6.34832e-011 0.707107   
     length 0.819219   
     axis -90 45 -1.62303e-014   XYZ
    dof rx rz
    limits (-45.0 45.0)
           (-45.0 45.0)
  end
  begin
     id 24 
     name rclavicle
     direction -0.815579 0.573708 -0.0754329   
     length 3.54371  
     axis 0 0 0   XYZ 
    dof ry rz
    limits (-10.0 20.0)
           (-20.0 0.0)
  end
  begin
     id 25 
     name rhumerus
     direction -1 -4.48956e-011 3.05351e-028  
     length 5.23924   
     axis 180 30 90   XYZ
    dof rx ry rz
    limits (-90.0 60.0)
           (-90.0 90.0)
           (-90.0 90.0)
  end
  begin
     id 26 
     name rradius
     direction -1 -4.49013e-011 3.53849e-027   
     length 3.32953   
     axis 180 30 90   XYZ
    dof rx
    limits (-10.0 170.0)
  end
  begin
     id 27 
     name rwrist
     direction -1 -4.48901e-011 1.19374e-026   
     length 1.66477   
     axis -8.46377e-015 -90 -90   XYZ
    dof ry
    limits (-180.0 0.0)
  end
  begin
     id 28
     name rhand
     direction -1 -4.48877e-011 2.38764e-026   
     length 0.607414   
     axis -1.52313e-014 -90 -90   XYZ
    dof rx rz
    limits (-90.0 90.0)
           (-45.0 45.0)
  end
  begin
     id 29
     name rfingers
     direction -1 -4.48882e-011 4.77521e-026   
     length 0.489712   
     axis -3.04623e-014 -90 -90   XYZ
    dof rx
    limits (0.0 90.0)
  end
  begin
     id 30
     name rthumb
     direction -0.707107 -6.34974e-011 0.707107   
     length 0.703132   
     axis -90 -45 1.62303e-014   XYZ
    dof rx rz
    limits (-45.0 45.0)
           (-45.0 45.0)
  end
:hierarchy
  begin
    root lhipjoint rhipjoint lowerback
    lhipjoint lfemur
    lfemur ltibia
    ltibia lfoot
    lfoot ltoes
    rhipjoint rfemur
    rfemur rtibia
    rtibia rfoot
    rfoot rtoes
    lowerback upperback
    upperback thorax
    thorax lowerneck lclavicle rclavicle
    lowerneck upperneck
    upperneck head
    lclavicle lhumerus
    lhumerus lradius
    lradius lwrist
    lwrist lhand lthumb
    lhand lfingers
    rclavicle rhumerus
    rhumerus rradius
    rradius rwrist
    rwrist rhand rthumb
    rhand rfingers
  end

#!OML:ASF E:\VariousWalksJay\Project 1\Capture day 1\Session 1\Actor2.ASF
:FULLY-SPECIFIED
:DEGREES
94
root 29.1701 15.0495 -25.8507 3.62698 -40.9766 2.80195
lowerback 35.4905 -4.73048 2.92165
upperback 21.7096 -6.36846 -2.86803
thorax 5.58645 -3.1873 -2.91059
lowerneck 2.12501 2.49882 -0.281357
upperneck -21.1111 3.19253 -0.473121
head -6.76716 1.51553 -0.298626
rclavicle 6.04305e-014 -3.02153e-014
rhumerus 0.551597 33.3959 -66.9979
rradius 107.193
rwrist 2.02111
rhand -34.6862 -8.00849
rfingers 7.12502
rthumb -7.84195 -37.8431
lclavicle 6.04305e-014 -3.02153e-014
lhumerus 62.9963 -2.21444 34.9092
lradius 71.9388
lwrist 54.4746
lhand -33.4543 12.7133
lfingers 7.12502
lthumb -6.65283 42.5888
rfemur -72.2552 6.49132 19.5701
rtibia 31.4445
rfoot -20.8617 -10.2668
rtoes -28.9384
lfemur -40.7253 10.4427 -37.1178
ltibia 70.2607
lfoot -34.9806 12.0115
ltoes -7.54965
95
root 29.1212 15.0588 -25.7876 3.51193 -40.8328 2.70944
lowerback 35.0227 -4.69968 3.28783
upperback 21.5773 -6.22607 -3.00411
thorax 5.55389 -3.06105 -3.29882
lowerneck 2.54734 2.36591 0.434438
upperneck -20.8518 3.06891 -0.535203
head -6.74397 1.40937 -0.434541
rclavicle -1.51076e-014 -2.46493e-014
rhumerus -0.881576 33.0705 -68.1988
rradius 106.745
rwrist 2.29614
rhand -34.8714 -7.67104
rfingers 7.12502
rthumb -8.02066 -37.4989
lclavicle -1.51076e-014 -2.46493e-014
lhumerus 63.0292 -3.41055 34.6882
lradius 72.0645
lwrist 54.4323
lhand -33.4169 12.6893
lfingers 7.12502
lthumb -6.61669 42.5659
rfemur -71.8603 6.58793 19.7923
rtibia 30.9193
rfoot -20.7498 -10.0338
rtoes -28.8534
lfemur -40.1566 10.5171 -36.9347
ltibia 70.2814
lfoot -35.0429 11.8383
ltoes -8.01177
96
root 29.0715 15.0689 -25.7239 3.41276 -40.6779 2.62068
lowerback 34.5547 -4.65611 3.66487
upperback 21.4214 -6.06531 -3.14043
thorax 5.50004 -2.92489 -3.69692
lowerneck 3.02831 2.20775 1.16689
upperneck -20.6217 2.9227 -0.577354
head -6.74262 1.29011 -0.566012
rclavicle -2.8625e-014 9.89948e-014
rhumerus -2.36919 32.685 -69.4771
rradius 106.26
rwrist 2.62129
rhand -35.0641 -7.32447
rfingers 7.12502
rthumb -8.20661 -37.1451
lclavicle -2.8625e-014 9.89948e-014
lhumerus 63.089 -4.66552 34.4505
lradius 72.2066
lwrist 54.4137
lhand -33.4151 12.6526
lfingers 7.12502
lthumb -6.61492 42.5293
rfemur -71.4732 6.64461 20.0323
rtibia 30.4236
rfoot -20.6175 -9.80902
rtoes -28.7294
lfemur -39.6076 10.6153 -36.7529
ltibia 70.3064
lfoot -35.0904 11.6178
ltoes -8.51034
97
root 29.0207 15.0797 -25.6589 3.31639 -40.5287 2.54625
lowerback 34.0781 -4.60879 4.01831
upperback 21.2678 -5.90979 -3.2786
thorax 5.45818 -2.79434 -4.08501
lowerneck 3.49461 2.04623 1.84349
upperneck -20.414 2.77912 -0.585378
head -6.74929 1.17412 -0.676811
rclavicle -7.63333e-014 4.77083e-015
rhumerus -3.80828 32.2888 -70.7538
rradius 105.739
rwrist 2.98919
rhand -35.264 -6.97236
rfingers 7.12502
rthumb -8.39956 -36.7853
lclavicle -7.63333e-014 4.77083e-015
lhumerus 63.1429 -5.90695 34.2233
lradius 72.3484
lwrist 54.3831
lhand -33.3043 12.6433
lfingers 7.12502
lthumb -6.50798 42.5233
rfemur -71.0843 6.6734 20.2859
rtibia 29.9542
rfoot -20.4574 -9.60295
rtoes -28.6109
lfemur -39.0702 10.7541 -36.5819
ltibia 70.3336
lfoot -35.1248 11.3523
ltoes -9.0302
98
root 28.9688 15.0906 -25.5946 3.23733 -40.3598 2.48133
lowerback 33.5942 -4.57196 4.30084
upperback 21.1219 -5.78875 -3.38611
thorax 5.43806 -2.69126 -4.39683
lowerneck 3.89936 1.90674 2.36847
upperneck -20.2208 2.66142 -0.553718
head -6.75371 1.07927 -0.750089
rclavicle -1.03368e-014 3.57812e-014
rhumerus -5.11953 31.9571 -71.9398
rradius 105.187
rwrist 3.38819
rhand -35.4582 -6.62607
rfingers 7.12502
rthumb -8.58699 -36.4315
lclavicle -1.03368e-014 3.57812e-014
lhumerus 63.131 -7.04995 34.0586
lradius 72.4826
lwrist 54.3228
lhand -33.2784 12.5987
lfingers 7.12502
lthumb -6.48299 42.4794
rfemur -70.7087 6.66547 20.5433
rtibia 29.5094
rfoot -20.2762 -9.4369
rtoes -28.4418
lfemur -38.5655 10.9126 -36.4124
ltibia 70.3686
lfoot -35.1345 11.0317
ltoes -9.5577
99
root 28.9159 15.1019 -25.5295 3.16829 -40.1909 2.41839
lowerback 33.0892 -4.5585 4.53759
upperback 21.0027 -5.71402 -3.48896
thorax 5.45875 -2.61657 -4.67151
lowerneck 4.22854 1.80101 2.7409
upperneck -20.0388 2.58437 -0.47144
head -6.75138 1.01161 -0.783206
rclavicle 8.18993e-014 -2.62396e-014
rhumerus -6.31373 31.6999 -73.0223
rradius 104.648
rwrist 3.79504
rhand -35.6596 -6.27831
rfingers 7.12502
rthumb -8.78136 -36.0756
lclavicle 8.18993e-014 -2.62396e-014
lhumerus 63.0483 -8.09437 33.9011
lradius 72.6252
lwrist 54.2318
lhand -33.2537 12.5497
lfingers 7.12502
lthumb -6.45912 42.4312
rfemur -70.3272 6.62755 20.8258
rtibia 29.0846
rfoot -20.0864 -9.29473
rtoes -28.2442
lfemur -38.079 11.1017 -36.2384
ltibia 70.4095
lfoot -35.1289 10.6508
ltoes -10.0143
100
root 28.862 15.1141 -25.4639 3.09723 -40.0175 2.37161
lowerback 32.5782 -4.56235 4.69189
upperback 20.9039 -5.68556 -3.56677
thorax 5.5119 -2.57543 -4.86727
lowerneck 4.47033 1.73196 2.95763
upperneck -19.8431 2.54302 -0.367236
head -6.73112 0.971574 -0.784411
rclavicle -5.08889e-014 2.98177e-014
rhumerus -7.3953 31.5461 -73.9444
rradius 104.147
rwrist 4.1743
rhand -35.8634 -5.93376
rfingers 7.12502
rthumb -8.97798 -35.7227
lclavicle -5.08889e-014 2.98177e-014
lhumerus 62.8735 -9.01274 33.8105
lradius 72.7622
lwrist 54.089
lhand -33.2228 12.4761
lfingers 7.12502
lthumb -6.42931 42.3585
rfemur -69.9346 6.55638 21.1185
rtibia 28.675
rfoot -19.8988 -9.17927
rtoes -28.0459
lfemur -37.6049 11.3106 -36.0682
ltibia 70.4548
lfoot -35.1078 10.204
ltoes -10.3929
101
root 28.807 15.1272 -25.397 3.02274 -39.8478 2.33906
lowerback 32.059 -4.58344 4.74965
upperback 20.8344 -5.70699 -3.60463
thorax 5.61001 -2.57185 -4.96107
lowerneck 4.58583 1.7102 2.95916
upperneck -19.618 2.54392 -0.228026
head -6.68149 0.965765 -0.739714
rclavicle -2.38542e-015 -1.35174e-014
rhumerus -8.33859 31.5286 -74.6463
rradius 103.696
rwrist 4.4975
rhand -36.0833 -5.60881
rfingers 7.12502
rthumb -9.19022 -35.3885
lclavicle -2.38542e-015 -1.35174e-014
lhumerus 62.5972 -9.76974 33.7482
lradius 72.9178
lwrist 53.9424
lhand -33.2075 12.4152
lfingers 7.12502
lthumb -6.41453 42.2981
rfemur -69.5245 6.45596 21.4279
rtibia 28.275
rfoot -19.7158 -9.08855
rtoes -27.876
lfemur -37.1363 11.5428 -35.9003
ltibia 70.5031
lfoot -35.0763 9.69038
ltoes -10.6775
102
root 28.7509 15.1406 -25.33 2.95173 -39.6622 2.32529
lowerback 31.5376 -4.60199 4.77829
upperback 20.7621 -5.73232 -3.63532
thorax 5.71095 -2.57335 -5.03183
lowerneck 4.67925 1.68579 2.96268
upperneck -19.3655 2.53721 -0.102404
head -6.61911 0.957874 -0.698814
rclavicle -2.46493e-014 1.66979e-014
rhumerus -9.31955 31.5044 -75.2864
rradius 103.307
rwrist 4.7853
rhand -36.3122 -5.2807
rfingers 7.12502
rthumb -9.41108 -35.0506
lclavicle -2.46493e-014 1.66979e-014
lhumerus 62.3132 -10.548 33.6954
lradius 73.0872
lwrist 53.7455
lhand -33.1975 12.3445
lfingers 7.12502
lthumb -6.40487 42.2277
rfemur -69.1105 6.31667 21.7403
rtibia 27.8836
rfoot -19.5514 -9.02366
rtoes -27.6938
lfemur -36.6821 11.7701 -35.7349
ltibia 70.5548
lfoot -35.0304 9.11327
ltoes -10.8846
103
root 28.6937 15.1544 -25.2618 2.88579 -39.4743 2.32421
lowerback 31.0109 -4.61493 4.78895
upperback 20.6878 -5.75531 -3.65996
thorax 5.81641 -2.57565 -5.08838
lowerneck 4.75933 1.65744 2.95455
upperneck -19.0921 2.52136 0.0173768
head -6.54796 0.947392 -0.657026
rclavicle 1.35174e-014 -8.74653e-014
rhumerus -10.3299 31.4725 -75.8715
rradius 102.962
rwrist 5.03191
rhand -36.5527 -4.9568
rfingers 7.12502
rthumb -9.64307 -34.7161
lclavicle 1.35174e-014 -8.74653e-014
lhumerus 62.0251 -11.3218 33.655
lradius 73.2759
lwrist 53.539
lhand -33.1421 12.3003
lfingers 7.12502
lthumb -6.35141 42.1851
rfemur -68.6899 6.15406 22.0546
rtibia 27.5003
rfoot -19.411 -8.97889
rtoes -27.5321
lfemur -36.2364 12.0037 -35.5682
ltibia 70.6058
lfoot -34.9709 8.48213
ltoes -11.0502
104
root 28.6353 15.1677 -25.1936 2.83498 -39.2654 2.33824
lowerback 30.4853 -4.62051 4.76779
upperback 20.6015 -5.77506 -3.66209
thorax 5.91623 -2.581 -5.10514
lowerneck 4.83052 1.6229 2.92788
upperneck -18.8031 2.49161 0.125443
head -6.47058 0.93281 -0.614866
rclavicle 4.77083e-015 -3.65764e-014
rhumerus -11.3835 31.4318 -76.3708
rradius 102.683
rwrist 5.21138
rhand -36.7816 -4.6227
rfingers 7.12502
rthumb -9.86395 -34.3716
lclavicle 4.77083e-015 -3.65764e-014
lhumerus 61.7225 -12.108 33.6793
lradius 73.4737
lwrist 53.3033
lhand -33.0942 12.2417
lfingers 7.12502
lthumb -6.30513 42.1278
rfemur -68.2798 5.96003 22.3614
rtibia 27.1241
rfoot -19.2858 -8.96393
rtoes -27.4202
lfemur -35.8072 12.2254 -35.4043
ltibia 70.6565
lfoot -34.8941 7.82668
ltoes -11.265
105
root 28.5757 15.1809 -25.124 2.79613 -39.0566 2.36235
lowerback 29.9492 -4.62056 4.73679
upperback 20.5127 -5.79033 -3.66139
thorax 6.0217 -2.58492 -5.11604
lowerneck 4.9004 1.58485 2.8994
upperneck -18.5144 2.45481 0.225275
head -6.39319 0.915584 -0.574677
rclavicle 5.725e-014 1.59028e-014
rhumerus -12.4337 31.3762 -76.8762
rradius 102.379
rwrist 5.37988
rhand -37.0033 -4.28453
rfingers 7.12502
rthumb -10.0778 -34.0232
lclavicle 5.725e-014 1.59028e-014
lhumerus 61.4063 -12.913 33.7321
lradius 73.6953
lwrist 53.0705
lhand -32.9924 12.2048
lfingers 7.12502
lthumb -6.20689 42.0938
rfemur -67.872 5.75529 22.6597
rtibia 26.7561
rfoot -19.1836 -8.96613
rtoes -27.2881
lfemur -35.3808 12.4611 -35.2424
ltibia 70.696
lfoot -34.8067 7.16292
ltoes -11.5641
106
root 28.5147 15.1935 -25.0534 2.78231 -38.8434 2.38534
lowerback 29.3999 -4.61946 4.70528
upperback 20.4189 -5.80418 -3.65767
thorax 6.1304 -2.58807 -5.12501
lowerneck 4.97838 1.54629 2.87047
upperneck -18.2401 2.41633 0.319486
head -6.32181 0.897699 -0.536399
rclavicle -1.11319e-014 -1.11319e-014
rhumerus -13.4729 31.3049 -77.3933
rradius 102.046
rwrist 5.53436
rhand -37.1958 -3.93629
rfingers 7.12502
rthumb -10.2636 -33.6659
lclavicle -1.11319e-014 -1.11319e-014
lhumerus 61.0781 -13.7044 33.7759
lradius 73.9523
lwrist 52.8958
lhand -32.9565 12.1404
lfingers 7.12502
lthumb -6.17223 42.0304
rfemur -67.4737 5.54122 22.9554
rtibia 26.3966
rfoot -19.0959 -8.99108
rtoes -27.1613
lfemur -34.9631 12.7068 -35.0754
ltibia 70.7201
lfoot -34.7116 6.50795
ltoes -11.98
107
root 28.4525 15.2063 -24.9802 2.78019 -38.6458 2.41402
lowerback 28.8272 -4.6188 4.6849
upperback 20.3306 -5.8178 -3.67005
thorax 6.25507 -2.58826 -5.15956
lowerneck 5.06397 1.51002 2.85917
upperneck -17.9874 2.38171 0.40506
head -6.25839 0.880693 -0.504369
rclavicle 7.95139e-015 2.38542e-014
rhumerus -14.4953 31.2145 -77.9393
rradius 101.685
rwrist 5.68161
rhand -37.3705 -3.58354
rfingers 7.12502
rthumb -10.432 -33.3047
lclavicle 7.95139e-015 2.38542e-014
lhumerus 60.7327 -14.4915 33.8393
lradius 74.2301
lwrist 52.7326
lhand -32.8786 12.0854
lfingers 7.12502
lthumb -6.09697 41.9776
rfemur -67.0719 5.32321 23.2567
rtibia 26.045
rfoot -19.0121 -9.02099
rtoes -27.0395
lfemur -34.5346 12.9778 -34.9145
ltibia 70.7163
lfoot -34.6179 5.87704
ltoes -12.487
108
root 28.3892 15.2191 -24.9046 2.78587 -38.4637 2.44932
lowerback 28.2552 -4.60622 4.64335
upperback 20.2365 -5.82082 -3.67038
thorax 6.38066 -2.58613 -5.17296
lowerneck 5.17206 1.47517 2.84325
upperneck -17.7728 2.34734 0.477655
head -6.21083 0.864277 -0.47623
rclavicle -6.75868e-014 4.25399e-014
rhumerus -15.5172 31.1158 -78.4556
rradius 101.325
rwrist 5.80948
rhand -37.5165 -3.21022
rfingers 7.12502
rthumb -10.5729 -32.9243
lclavicle -6.75868e-014 4.25399e-014
lhumerus 60.3585 -15.2864 33.9405
lradius 74.5347
lwrist 52.5834
lhand -32.9135 11.9918
lfingers 7.12502
lthumb -6.13074 41.8831
rfemur -66.6603 5.09919 23.5656
rtibia 25.6974
rfoot -18.9269 -9.04677
rtoes -26.9272
lfemur -34.0902 13.2785 -34.7609
ltibia 70.6818
lfoot -34.5299 5.27076
ltoes -13.0682
